<svg width="25" height="15" viewBox="0 0 25 15" fill="none" xmlns="http://www.w3.org/2000/svg">
<path d="M9.7 10.68H3.34L2.12 14H0.64L5.74 0.199999H7.32L12.4 14H10.92L9.7 10.68ZM9.28 9.52L6.52 1.96L3.76 9.52H9.28ZM14.0069 8.52C14.0069 7.4 14.2269 6.42 14.6669 5.58C15.1202 4.72667 15.7402 4.07333 16.5269 3.62C17.3269 3.15333 18.2269 2.92 19.2269 2.92C20.2669 2.92 21.1602 3.16 21.9069 3.64C22.6669 4.12 23.2135 4.73333 23.5469 5.48V3.08H24.9469V14H23.5469V11.58C23.2002 12.3267 22.6469 12.9467 21.8869 13.44C21.1402 13.92 20.2469 14.16 19.2069 14.16C18.2202 14.16 17.3269 13.9267 16.5269 13.46C15.7402 12.9933 15.1202 12.3333 14.6669 11.48C14.2269 10.6267 14.0069 9.64 14.0069 8.52ZM23.5469 8.54C23.5469 7.66 23.3669 6.88667 23.0069 6.22C22.6469 5.55333 22.1535 5.04 21.5269 4.68C20.9135 4.32 20.2335 4.14 19.4869 4.14C18.7135 4.14 18.0202 4.31333 17.4069 4.66C16.7935 5.00667 16.3069 5.51333 15.9469 6.18C15.6002 6.83333 15.4269 7.61333 15.4269 8.52C15.4269 9.41333 15.6002 10.2 15.9469 10.88C16.3069 11.5467 16.7935 12.06 17.4069 12.42C18.0202 12.7667 18.7135 12.94 19.4869 12.94C20.2335 12.94 20.9135 12.76 21.5269 12.4C22.1535 12.04 22.6469 11.5267 23.0069 10.86C23.3669 10.1933 23.5469 9.42 23.5469 8.54Z" fill="#727272"/>
</svg>
