<svg width="21" height="21" viewBox="0 0 21 21" fill="none" xmlns="http://www.w3.org/2000/svg">
<path d="M3 5.5H4.66667H18" stroke="#727272" stroke-linecap="round" stroke-linejoin="round"/>
<path d="M16.3337 5.50033V17.167C16.3337 17.609 16.1581 18.0329 15.8455 18.3455C15.5329 18.6581 15.109 18.8337 14.667 18.8337H6.33366C5.89163 18.8337 5.46771 18.6581 5.15515 18.3455C4.84259 18.0329 4.66699 17.609 4.66699 17.167V5.50033M7.16699 5.50033V3.83366C7.16699 3.39163 7.34259 2.96771 7.65515 2.65515C7.96771 2.34259 8.39163 2.16699 8.83366 2.16699H12.167C12.609 2.16699 13.0329 2.34259 13.3455 2.65515C13.6581 2.96771 13.8337 3.39163 13.8337 3.83366V5.50033" stroke="#727272" stroke-linecap="round" stroke-linejoin="round"/>
<path d="M8.83301 9.66699V14.667" stroke="#727272" stroke-linecap="round" stroke-linejoin="round"/>
<path d="M12.167 9.66699V14.667" stroke="#727272" stroke-linecap="round" stroke-linejoin="round"/>
</svg>
