<svg width="20" height="20" viewBox="0 0 20 20" fill="none" xmlns="http://www.w3.org/2000/svg">
<path fill-rule="evenodd" clip-rule="evenodd" d="M12.4 2.8C12.4 2.35817 12.7582 2 13.2 2H15.6C16.2365 2 16.847 2.25286 17.2971 2.70294C17.7471 3.15303 18 3.76348 18 4.4V6.8C18 7.24183 17.6418 7.6 17.2 7.6C16.7582 7.6 16.4 7.24183 16.4 6.8V4.4C16.4 4.18783 16.3157 3.98434 16.1657 3.83431C16.0157 3.68429 15.8122 3.6 15.6 3.6H13.2C12.7582 3.6 12.4 3.24183 12.4 2.8ZM2.8 12.4C3.24183 12.4 3.6 12.7582 3.6 13.2V15.6C3.6 15.8122 3.68429 16.0157 3.83431 16.1657C3.98434 16.3157 4.18783 16.4 4.4 16.4H6.8C7.24183 16.4 7.6 16.7582 7.6 17.2C7.6 17.6418 7.24183 18 6.8 18H4.4C3.76348 18 3.15303 17.7471 2.70294 17.2971C2.25286 16.847 2 16.2365 2 15.6V13.2C2 12.7582 2.35817 12.4 2.8 12.4Z" fill="#51A3FF"/>
</svg>
